<svg width="25" height="24" viewBox="0 0 25 24" fill="none" xmlns="http://www.w3.org/2000/svg">
<path d="M12.1786 5.89282H7.17857C6.79969 5.89282 6.43633 6.04333 6.16842 6.31124C5.90051 6.57915 5.75 6.94251 5.75 7.32139V17.3214C5.75 17.7003 5.90051 18.0636 6.16842 18.3315C6.43633 18.5995 6.79969 18.75 7.17857 18.75H17.1786C17.5575 18.75 17.9208 18.5995 18.1887 18.3315C18.4566 18.0636 18.6071 17.7003 18.6071 17.3214V12.3214" stroke="#B58150" stroke-opacity="0.6" stroke-width="1.5" stroke-linecap="round" stroke-linejoin="round"/>
<path d="M16.7558 5.67794C17.0298 5.40393 17.4015 5.25 17.789 5.25C18.1765 5.25 18.5481 5.40393 18.8221 5.67794C19.0961 5.95195 19.25 6.32358 19.25 6.71108C19.25 7.09858 19.0961 7.47021 18.8221 7.74422L12.6143 13.9527C12.4508 14.1161 12.2487 14.2357 12.0268 14.3005L10.048 14.8791C9.98872 14.8964 9.92589 14.8974 9.86609 14.8821C9.80628 14.8668 9.7517 14.8356 9.70804 14.792C9.66439 14.7483 9.63327 14.6937 9.61795 14.6339C9.60263 14.5741 9.60367 14.5113 9.62095 14.4521L10.1995 12.4732C10.2646 12.2515 10.3845 12.0497 10.548 11.8864L16.7558 5.67794Z" stroke="#B58150" stroke-opacity="0.6" stroke-width="1.5" stroke-linecap="round" stroke-linejoin="round"/>
</svg>
